<svg xmlns="http://www.w3.org/2000/svg"  viewBox="0 0 30 30" width="240px" height="240px" baseProfile="basic"><polygon fill="#ffd2d2" points="24,5 18,2 14,2 14,17 7,17 4,20 5,26 11,28 16.5,26 18,21 18,7 22,11 23,18 26,11"/><polygon fill="#ff9f9f" points="14,17 8,21 18,21"/><polygon fill="#ffb6b6" points="14,17 7,17 8,21"/><polygon fill="#ffd2d2" points="7,17 4,20 8,21"/><polygon fill="#ffb6b6" points="4,20 5,26 8,21"/><polygon fill="#ff9f9f" points="8,21 11,28 5,26"/><polygon fill="#ff7575" points="16.5,26 11,28 18,21"/><polygon fill="#ff8f8f" points="18,21 8,21 11,28"/><polygon fill="#ffd2d2" points="18,2 24,5 18,7"/><polygon fill="#ffb6b6" points="18,2 14,2 18,7"/><polygon fill="#ff9f9f" points="14,2 14,17 18,7"/><polygon fill="#ffb6b6" points="18,7 22,11 24,5"/><polygon fill="#ff9f9f" points="24,5 26,11 22,11"/><polygon fill="#ff8f8f" points="26,11 23,18 22,11"/><polygon fill="#ff8f8f" points="18,7 18,21 14,17"/></svg>